<svg width="20" height="16" viewBox="0 0 20 16" fill="none" xmlns="http://www.w3.org/2000/svg">
<path d="M10 0C14.9838 0 19.1302 3.44889 20 8C19.1312 12.5511 14.9838 16 10 16C5.01618 16 0.869766 12.5511 0 8C0.868842 3.44889 5.01618 0 10 0ZM10 14.2222C11.8851 14.2218 13.7142 13.6061 15.188 12.4757C16.6617 11.3453 17.6929 9.76735 18.1126 8C17.6913 6.23405 16.6595 4.65778 15.1859 3.52891C13.7123 2.40004 11.884 1.78536 10 1.78536C8.116 1.78536 6.28772 2.40004 4.8141 3.52891C3.34048 4.65778 2.30869 6.23405 1.88742 8C2.30714 9.76735 3.33827 11.3453 4.81204 12.4757C6.28581 13.6061 8.11492 14.2218 10 14.2222ZM10 12C8.89687 12 7.83893 11.5786 7.0589 10.8284C6.27887 10.0783 5.84065 9.06087 5.84065 8C5.84065 6.93913 6.27887 5.92172 7.0589 5.17157C7.83893 4.42143 8.89687 4 10 4C11.1031 4 12.1611 4.42143 12.9411 5.17157C13.7211 5.92172 14.1593 6.93913 14.1593 8C14.1593 9.06087 13.7211 10.0783 12.9411 10.8284C12.1611 11.5786 11.1031 12 10 12ZM10 10.2222C10.6128 10.2222 11.2006 9.9881 11.6339 9.57135C12.0673 9.1546 12.3108 8.58937 12.3108 8C12.3108 7.41063 12.0673 6.8454 11.6339 6.42865C11.2006 6.0119 10.6128 5.77778 10 5.77778C9.38715 5.77778 8.7994 6.0119 8.36605 6.42865C7.9327 6.8454 7.68925 7.41063 7.68925 8C7.68925 8.58937 7.9327 9.1546 8.36605 9.57135C8.7994 9.9881 9.38715 10.2222 10 10.2222Z" fill="#9DA0A9"/>
</svg>
