<svg width="122" height="56" viewBox="0 0 122 56" fill="none" xmlns="http://www.w3.org/2000/svg">
<g clip-path="url(#clip0_83_47)">
<path d="M19.4157 51.7767C19.4157 52.3487 19.504 52.863 19.6807 53.3198C19.8616 53.7725 20.1082 54.1572 20.4205 54.4741C20.737 54.7868 21.1069 55.0276 21.5302 55.1963C21.9576 55.3609 22.42 55.4432 22.9173 55.4432C23.1762 55.4432 23.4352 55.3856 23.6941 55.2704C23.953 55.151 24.1975 55.0008 24.4277 54.8198C24.6579 54.6346 24.8654 54.4288 25.0503 54.2025C25.2394 53.9762 25.3894 53.754 25.5004 53.5359L26.0367 53.9062C25.8641 54.186 25.6648 54.4535 25.4387 54.7087C25.2127 54.9638 24.9517 55.1901 24.6558 55.3876C24.3599 55.5811 24.027 55.7354 23.6571 55.8506C23.2913 55.9699 22.8844 56.0296 22.4364 56.0296C21.7789 56.0296 21.1809 55.9164 20.6425 55.6901C20.1041 55.4638 19.6417 55.1572 19.2554 54.7704C18.8731 54.3836 18.5772 53.933 18.3676 53.4186C18.158 52.9001 18.0532 52.3528 18.0532 51.7767C18.0532 51.394 18.1005 51.0215 18.195 50.6594C18.2937 50.2932 18.4334 49.9516 18.6142 49.6348C18.7992 49.3138 19.0211 49.0216 19.28 48.7582C19.5431 48.4908 19.839 48.2624 20.1678 48.0731C20.4966 47.8797 20.8562 47.7315 21.2466 47.6287C21.6412 47.5217 22.0604 47.4682 22.5043 47.4682C22.9194 47.4682 23.3036 47.5278 23.6571 47.6472C24.0146 47.7624 24.3414 47.9188 24.6373 48.1163C24.9332 48.3097 25.1962 48.536 25.4264 48.7953C25.6607 49.0504 25.8641 49.3158 26.0367 49.5916L25.525 49.9681C25.3689 49.6883 25.1839 49.4311 24.9702 49.1965C24.7606 48.9619 24.5366 48.7603 24.2982 48.5916C24.064 48.4229 23.8235 48.2912 23.5769 48.1965C23.3303 48.1019 23.0961 48.0546 22.8741 48.0546C22.4015 48.0546 21.9556 48.141 21.5364 48.3138C21.1172 48.4867 20.7493 48.7336 20.4329 49.0545C20.1205 49.3755 19.8719 49.7664 19.6869 50.2273C19.5061 50.6841 19.4157 51.2006 19.4157 51.7767Z" fill="#553B2C"/>
<path d="M32.1893 56.0296C31.5728 56.0296 30.9974 55.9164 30.4631 55.6901C29.9329 55.4638 29.4706 55.1551 29.076 54.7642C28.6815 54.3692 28.3712 53.9103 28.1451 53.3877C27.9191 52.861 27.806 52.2993 27.806 51.7026C27.806 51.1141 27.9191 50.5627 28.1451 50.0483C28.3712 49.5339 28.6815 49.0854 29.076 48.7027C29.4706 48.32 29.9329 48.0196 30.4631 47.8015C30.9974 47.5793 31.5728 47.4682 32.1893 47.4682C32.8057 47.4682 33.3811 47.5793 33.9154 47.8015C34.4497 48.0196 34.9141 48.32 35.3087 48.7027C35.7032 49.0854 36.0135 49.5339 36.2396 50.0483C36.4656 50.5627 36.5786 51.1141 36.5786 51.7026C36.5786 52.2993 36.4656 52.861 36.2396 53.3877C36.0135 53.9103 35.7032 54.3692 35.3087 54.7642C34.9141 55.1551 34.4497 55.4638 33.9154 55.6901C33.3811 55.9164 32.8057 56.0296 32.1893 56.0296ZM32.1893 55.6222C32.6783 55.6222 33.1099 55.5255 33.4839 55.3321C33.862 55.1346 34.1785 54.8609 34.4333 54.5111C34.6881 54.1614 34.8813 53.7478 35.0128 53.2704C35.1443 52.7931 35.21 52.2705 35.21 51.7026C35.21 51.1388 35.1443 50.6224 35.0128 50.1533C34.8813 49.6841 34.6881 49.2809 34.4333 48.9434C34.1785 48.6019 33.862 48.3385 33.4839 48.1533C33.1099 47.964 32.6783 47.8694 32.1893 47.8694C31.6961 47.8694 31.2604 47.964 30.8823 48.1533C30.5042 48.3385 30.1877 48.6019 29.9329 48.9434C29.6822 49.2809 29.4911 49.6841 29.3596 50.1533C29.2322 50.6224 29.1685 51.1388 29.1685 51.7026C29.1685 52.2705 29.2322 52.7931 29.3596 53.2704C29.4911 53.7478 29.6822 54.1614 29.9329 54.5111C30.1877 54.8609 30.5042 55.1346 30.8823 55.3321C31.2604 55.5255 31.6961 55.6222 32.1893 55.6222Z" fill="#553B2C"/>
<path d="M43.7052 47.6533V48.1842H39.7166V51.11H42.6017V51.6409H39.7166V55.8383H38.5884V47.6533H43.7052Z" fill="#553B2C"/>
<path d="M50.166 47.6533V48.1842H46.1773V51.11H49.0625V51.6409H46.1773V55.8383H45.0492V47.6533H50.166Z" fill="#553B2C"/>
<path d="M57.0337 47.6533V48.1842H52.7244V51.11H55.6096V51.6409H52.7244V55.3074H57.0337V55.8383H51.5963V47.6533H57.0337Z" fill="#553B2C"/>
<path d="M64.3329 47.6533V48.1842H60.0236V51.11H62.9088V51.6409H60.0236V55.3074H64.3329V55.8383H58.8955V47.6533H64.3329Z" fill="#553B2C"/>
<path d="M74.2953 55.5111C74.5131 55.5111 74.7268 55.4844 74.9365 55.4309C75.1502 55.3732 75.3392 55.2909 75.5036 55.184C75.6721 55.0728 75.8078 54.9391 75.9105 54.7827C76.0132 54.6222 76.0646 54.4371 76.0646 54.2272C76.0646 54.0009 76.005 53.7951 75.8858 53.6099C75.7667 53.4248 75.6084 53.254 75.4111 53.0976C75.2139 52.9371 74.9858 52.7869 74.7268 52.647C74.472 52.503 74.209 52.361 73.9377 52.2211C73.65 52.0729 73.3644 51.9207 73.0808 51.7643C72.8014 51.6038 72.5486 51.4248 72.3225 51.2273C72.1006 51.0257 71.9198 50.7993 71.78 50.5483C71.6444 50.2932 71.5766 49.9969 71.5766 49.6595C71.5766 49.3467 71.6321 49.0566 71.743 48.7891C71.854 48.5216 72.0164 48.2912 72.2301 48.0978C72.4479 47.9003 72.715 47.7459 73.0315 47.6348C73.348 47.5237 73.7096 47.4682 74.1165 47.4682C74.4823 47.4682 74.809 47.5093 75.0967 47.5916C75.3885 47.6739 75.6434 47.7974 75.8612 47.962C76.0831 48.1225 76.2722 48.3221 76.4283 48.5607C76.5845 48.7994 76.714 49.0751 76.8167 49.3879L76.3235 49.6162C76.2455 49.3776 76.1407 49.1595 76.0091 48.9619C75.8817 48.7603 75.7256 48.5895 75.5406 48.4496C75.3557 48.3056 75.1399 48.1945 74.8933 48.1163C74.6467 48.0381 74.3672 47.999 74.0549 47.999C73.7754 47.999 73.5309 48.0361 73.3213 48.1101C73.1117 48.1801 72.937 48.2747 72.7972 48.3941C72.6616 48.5093 72.5589 48.641 72.489 48.7891C72.4191 48.9331 72.3842 49.0813 72.3842 49.2335C72.3842 49.4187 72.4438 49.5957 72.563 49.7644C72.6863 49.929 72.8466 50.0874 73.0438 50.2397C73.2452 50.3919 73.4733 50.5401 73.7281 50.6841C73.983 50.824 74.2439 50.9639 74.5111 51.1038C74.807 51.2561 75.1029 51.4187 75.3988 51.5915C75.6947 51.7602 75.9619 51.9495 76.2002 52.1594C76.4386 52.3651 76.6318 52.5935 76.7797 52.8445C76.9318 53.0914 77.0078 53.3692 77.0078 53.6778C77.0078 54.0029 76.9483 54.3095 76.8291 54.5976C76.7099 54.8815 76.5332 55.1305 76.2989 55.3444C76.0646 55.5543 75.7708 55.721 75.4173 55.8444C75.068 55.9679 74.6611 56.0296 74.1967 56.0296C73.8268 56.0296 73.4939 55.9864 73.198 55.9C72.902 55.8136 72.639 55.6881 72.4089 55.5234C72.1828 55.3547 71.9876 55.151 71.8232 54.9124C71.6629 54.6696 71.5273 54.3939 71.4163 54.0852L71.9403 53.8692C72.0225 54.1284 72.1376 54.3589 72.2856 54.5605C72.4376 54.7622 72.6144 54.935 72.8157 55.079C73.0171 55.2189 73.2432 55.3259 73.4939 55.4C73.7446 55.4741 74.0117 55.5111 74.2953 55.5111Z" fill="#553B2C"/>
<path d="M80.2937 55.8383H79.1656V47.6533H80.2937V51.3816H84.6461V47.6533H85.7743V55.8383H84.6461V51.9125H80.2937V55.8383Z" fill="#553B2C"/>
<path d="M92.2721 56.0296C91.6556 56.0296 91.0802 55.9164 90.5459 55.6901C90.0157 55.4638 89.5534 55.1551 89.1588 54.7642C88.7643 54.3692 88.4539 53.9103 88.2279 53.3877C88.0019 52.861 87.8888 52.2993 87.8888 51.7026C87.8888 51.1141 88.0019 50.5627 88.2279 50.0483C88.4539 49.5339 88.7643 49.0854 89.1588 48.7027C89.5534 48.32 90.0157 48.0196 90.5459 47.8015C91.0802 47.5793 91.6556 47.4682 92.2721 47.4682C92.8885 47.4682 93.4639 47.5793 93.9982 47.8015C94.5325 48.0196 94.9969 48.32 95.3915 48.7027C95.786 49.0854 96.0963 49.5339 96.3224 50.0483C96.5484 50.5627 96.6614 51.1141 96.6614 51.7026C96.6614 52.2993 96.5484 52.861 96.3224 53.3877C96.0963 53.9103 95.786 54.3692 95.3915 54.7642C94.9969 55.1551 94.5325 55.4638 93.9982 55.6901C93.4639 55.9164 92.8885 56.0296 92.2721 56.0296ZM92.2721 55.6222C92.7611 55.6222 93.1927 55.5255 93.5667 55.3321C93.9448 55.1346 94.2613 54.8609 94.5161 54.5111C94.7709 54.1614 94.9641 53.7478 95.0956 53.2704C95.2271 52.7931 95.2928 52.2705 95.2928 51.7026C95.2928 51.1388 95.2271 50.6224 95.0956 50.1533C94.9641 49.6841 94.7709 49.2809 94.5161 48.9434C94.2613 48.6019 93.9448 48.3385 93.5667 48.1533C93.1927 47.964 92.7611 47.8694 92.2721 47.8694C91.7789 47.8694 91.3432 47.964 90.9651 48.1533C90.587 48.3385 90.2705 48.6019 90.0157 48.9434C89.765 49.2809 89.5739 49.6841 89.4424 50.1533C89.315 50.6224 89.2513 51.1388 89.2513 51.7026C89.2513 52.2705 89.315 52.7931 89.4424 53.2704C89.5739 53.7478 89.765 54.1614 90.0157 54.5111C90.2705 54.8609 90.587 55.1346 90.9651 55.3321C91.3432 55.5255 91.7789 55.6222 92.2721 55.6222Z" fill="#553B2C"/>
<path d="M98.7575 47.6533H101.223C101.634 47.6533 102.019 47.7048 102.376 47.8077C102.738 47.9105 103.05 48.0628 103.313 48.2644C103.58 48.462 103.79 48.7068 103.942 48.999C104.094 49.287 104.17 49.6183 104.17 49.9928C104.17 50.3631 104.094 50.6923 103.942 50.9804C103.794 51.2643 103.597 51.503 103.35 51.6964C103.108 51.8898 102.832 52.0359 102.524 52.1347C102.216 52.2334 101.904 52.2828 101.587 52.2828C101.447 52.2828 101.302 52.2766 101.149 52.2643C100.997 52.252 100.847 52.2355 100.699 52.2149C100.551 52.1902 100.408 52.1655 100.268 52.1408C100.128 52.112 100.001 52.0832 99.8857 52.0544V55.8383H98.7575V47.6533ZM99.8857 51.5236C100.075 51.5935 100.266 51.6532 100.459 51.7026C100.656 51.752 100.854 51.7767 101.051 51.7767C101.367 51.7767 101.643 51.7335 101.877 51.647C102.115 51.5565 102.313 51.4351 102.469 51.2829C102.629 51.1265 102.748 50.9454 102.826 50.7397C102.904 50.5298 102.943 50.3076 102.943 50.073C102.943 49.7973 102.892 49.5483 102.789 49.3261C102.687 49.1039 102.547 48.9146 102.37 48.7582C102.193 48.5978 101.986 48.4743 101.747 48.3879C101.509 48.3015 101.254 48.2583 100.983 48.2583H99.8857V51.5236Z" fill="#553B2C"/>
<path d="M121.992 24.7654C121.837 28.0919 119.438 30.6816 116.633 30.5504C113.828 30.418 111.68 27.6164 111.835 24.291C111.99 20.9645 114.39 18.3736 117.194 18.506C120 18.636 122.147 21.4389 121.992 24.7654Z" fill="#B88C43"/>
<path d="M117.789 18.5758C117.789 18.5758 117.935 18.7215 118.126 19.0237C118.22 19.1742 118.329 19.3644 118.431 19.5944C118.48 19.7112 118.53 19.8352 118.584 19.9676C118.629 20.1025 118.668 20.2457 118.712 20.3974C118.743 20.5515 118.783 20.7117 118.811 20.8802C118.829 21.05 118.855 21.2269 118.861 21.4099C118.872 21.776 118.849 22.1672 118.768 22.5645C118.691 22.9618 118.559 23.3628 118.38 23.7468C118.281 23.9334 118.196 24.1333 118.079 24.3115L117.72 24.8424L117.389 25.3072C117.271 25.4709 117.203 25.613 117.105 25.7647C116.932 26.0681 116.767 26.3955 116.645 26.7146C116.571 26.8723 116.529 27.0372 116.474 27.1962C116.414 27.3527 116.385 27.5128 116.342 27.6681C116.266 27.9799 116.215 28.2821 116.183 28.5651C116.155 28.8492 116.14 29.1117 116.136 29.3488C116.14 29.5848 116.144 29.7931 116.158 29.9641C116.173 30.1362 116.185 30.2735 116.198 30.3662L116.22 30.5094C116.22 30.5094 116.101 30.3433 115.96 30.0134C115.893 29.8485 115.814 29.6438 115.751 29.4018C115.686 29.1574 115.626 28.8781 115.598 28.5663C115.567 28.2557 115.554 27.9125 115.585 27.5525C115.614 27.1913 115.678 26.8097 115.79 26.428C115.846 26.2378 115.9 26.0404 115.986 25.8538C116.066 25.6647 116.132 25.4709 116.244 25.2831C116.349 25.1001 116.449 24.8858 116.563 24.7293L116.913 24.2224L117.225 23.7757C117.325 23.624 117.406 23.4639 117.497 23.311C117.661 22.9944 117.797 22.6729 117.895 22.3478C117.995 22.0252 118.06 21.7001 118.098 21.3859C118.121 21.2294 118.119 21.0752 118.134 20.9235C118.14 20.7731 118.136 20.6274 118.137 20.4841C118.127 20.342 118.116 20.206 118.107 20.0772C118.091 19.9459 118.076 19.8231 118.061 19.7063C118.019 19.4752 117.983 19.2705 117.941 19.1032C117.896 18.9358 117.864 18.8022 117.835 18.7143L117.789 18.5758Z" fill="#FFFDFC"/>
<path d="M74.7091 11.1385C80.4857 3.26466 90.5501 0.839878 97.1912 5.72433C103.831 10.6076 104.531 20.9496 98.7544 28.8246C92.9766 36.6985 82.911 39.1221 76.2711 34.2388C69.6312 29.3544 68.9314 19.0124 74.7091 11.1385Z" fill="white"/>
<path d="M74.709 11.139L75.1924 11.4954C78.843 6.51699 84.2504 3.80207 89.2983 3.80448C92.0134 3.80568 94.6215 4.58344 96.8352 6.20998C100.283 8.74551 102.063 12.8329 102.066 17.302C102.066 21.0223 100.821 24.9905 98.2697 28.4675C94.6191 33.4459 89.2117 36.162 84.1638 36.1584C81.4487 36.1584 78.8406 35.3806 76.6269 33.7529C73.1807 31.2174 71.3987 27.1299 71.3963 22.6608C71.3963 18.9406 72.6408 14.9736 75.1924 11.4954L74.709 11.139L74.2244 10.7826C71.525 14.4631 70.1938 18.6721 70.1938 22.6608C70.1914 27.443 72.119 31.9313 75.9151 34.7245C78.3464 36.5124 81.2202 37.3636 84.1638 37.3623C89.6409 37.3599 95.3754 34.444 99.2377 29.1803C101.937 25.501 103.268 21.2907 103.268 17.302C103.271 12.5199 101.343 8.03158 97.547 5.2396C95.1157 3.45052 92.2418 2.59932 89.2983 2.60052C83.8211 2.60293 78.0867 5.52011 74.2244 10.7826L74.709 11.139Z" fill="#553B2C"/>
<path d="M74.9313 33.0979C74.4202 29.9327 75.2415 26.5099 77.1185 23.6758C78.9739 20.7995 81.9896 18.7119 85.17 17.6079C87.8816 16.6652 90.3826 15.342 92.5819 13.4891C94.7752 11.6386 96.6666 9.30657 98.1312 6.49533C98.1336 9.71592 96.7303 12.9064 94.6056 15.4793C92.4581 18.0557 89.4772 19.9544 86.3376 21.0235C83.6971 21.9602 81.2693 23.3507 79.3466 25.4167C77.3806 27.449 75.9233 30.0905 74.9313 33.0979Z" fill="#553B2C"/>
<path d="M76.1567 33.9102C76.1567 33.9102 88.4806 39.0258 96.9939 26.1615C105.506 13.296 97.1911 5.72436 97.1911 5.72436C97.1911 5.72436 107.835 13.6753 99.4613 27.7989C99.4613 27.7989 88.6549 43.0253 76.1567 33.9102Z" fill="#553B2C"/>
<path d="M92.2877 5.28657C90.8447 5.13006 89.4006 5.18305 87.9877 5.38892C86.5785 5.61045 85.1824 5.93431 83.8633 6.47248C82.5479 7.00704 81.2552 7.62948 80.0756 8.44336C78.8636 9.21028 77.7826 10.1626 76.6812 11.1161C77.1513 10.5647 77.6251 10.0061 78.1397 9.48718C78.6904 9.01041 79.2027 8.47827 79.8099 8.06411C80.957 7.14067 82.2906 6.47609 83.6469 5.91144C85.0177 5.36845 86.4738 5.0482 87.936 4.93021C89.3982 4.81463 90.8856 4.88445 92.2877 5.28657Z" fill="#553B2C"/>
<path d="M91.3291 20.879C90.723 21.5243 89.9871 22.0528 89.2079 22.4815C88.424 22.9077 87.6039 23.2761 86.7465 23.5349C85.0932 24.0261 83.518 24.8123 82.1881 25.8622L82.1676 25.8778C81.2899 26.5605 80.4505 27.3647 79.6882 28.2171C78.9283 29.0755 78.2044 29.9725 77.5322 30.9176C78.0733 29.893 78.701 28.9082 79.4201 27.9908C80.1523 27.0818 80.9111 26.2005 81.8478 25.4456L81.8273 25.4625C82.5176 24.8436 83.2775 24.3753 84.0759 23.9527C84.8791 23.5542 85.7329 23.2243 86.595 23.0136C87.4295 22.7848 88.258 22.5224 89.0504 22.166C89.8392 21.8036 90.6208 21.4075 91.3291 20.879Z" fill="#553B2C"/>
<path d="M97.2021 26.6568L95.0918 24.2176L97.8322 26.0115L97.2021 26.6568Z" fill="#553B2C"/>
<path d="M98.1061 26.4052C97.3991 25.3071 96.5442 24.2561 95.6436 23.2568C96.7474 24.0358 97.8128 24.8653 98.8084 25.8369L98.1061 26.4052Z" fill="#553B2C"/>
<path d="M98.273 25.2987C97.7404 24.2549 97.0333 23.2664 96.2529 22.337C97.2377 23.0473 98.1841 23.8395 99.0173 24.7894L98.273 25.2987Z" fill="#553B2C"/>
<path d="M98.7134 24.3548C98.1699 23.2568 97.4316 22.2214 96.6104 21.2522C97.636 22.0023 98.6172 22.845 99.4662 23.8576L98.7134 24.3548Z" fill="#553B2C"/>
<path d="M99.1243 23.1641C98.6157 22.1696 97.9519 21.2257 97.2148 20.3348C98.1564 21.0054 99.0594 21.7567 99.8638 22.6476L99.1243 23.1641Z" fill="#553B2C"/>
<path d="M100.142 23.1099L99.6018 22.0649C99.4178 21.7326 99.2182 21.4063 99.0042 21.0873C98.5761 20.448 98.0903 19.84 97.5757 19.2524C98.1925 19.7292 98.7926 20.2385 99.3517 20.7995C99.6319 21.0801 99.9012 21.3738 100.159 21.6808L100.882 22.5946L100.142 23.1099Z" fill="#553B2C"/>
<path d="M100.297 21.8337L99.7632 20.82C99.5817 20.4961 99.3869 20.1783 99.1789 19.8665C98.7616 19.2416 98.2891 18.6481 97.79 18.075C98.3925 18.5397 98.9792 19.0333 99.5252 19.5787C99.7993 19.8508 100.064 20.1361 100.318 20.4323L101.037 21.316L100.297 21.8337Z" fill="#553B2C"/>
<path d="M100.393 20.5178C100.036 19.8339 99.7127 19.2211 99.2954 18.6083C98.8902 17.9991 98.4321 17.42 97.9463 16.859C98.5343 17.3092 99.1066 17.7908 99.6429 18.3194C100.178 18.8359 100.683 19.4487 101.133 20.0001L100.393 20.5178Z" fill="#553B2C"/>
<path d="M100.645 19.3042C100.298 18.6481 99.9737 18.0473 99.5685 17.4513C99.1717 16.8602 98.7292 16.2919 98.2578 15.7441C98.8326 16.1824 99.3893 16.6507 99.9148 17.1624C100.44 17.6644 100.934 18.2472 101.384 18.7877L100.645 19.3042Z" fill="#553B2C"/>
<path d="M100.833 18.0485C100.497 17.4212 100.171 16.8325 99.7788 16.2534C99.3916 15.6791 98.9623 15.1241 98.5054 14.5883C99.0645 15.0145 99.608 15.4696 100.123 15.962C100.637 16.4496 101.123 17.0035 101.573 17.532L100.833 18.0485Z" fill="#553B2C"/>
<path d="M101.182 16.8999C100.555 15.6996 99.8075 14.5847 98.9141 13.5397C100.006 14.356 101.029 15.3264 101.921 16.3846L101.182 16.8999Z" fill="#553B2C"/>
<path d="M101.171 15.5142C100.561 14.3584 99.8243 13.2712 98.9634 12.2527C100.026 13.0473 101.026 13.9707 101.911 14.9965L101.171 15.5142Z" fill="#553B2C"/>
<path d="M100.932 13.9755C100.343 12.8619 99.6103 11.8084 98.7842 10.8127C99.8159 11.5881 100.797 12.4621 101.671 13.4578L100.932 13.9755Z" fill="#553B2C"/>
<path d="M100.7 12.4405C100.133 11.3678 99.4047 10.3492 98.6123 9.37882C99.6127 10.1337 100.577 10.956 101.439 11.924L100.7 12.4405Z" fill="#553B2C"/>
<path d="M94.8165 31.1584C94.1431 30.7418 93.6272 30.2566 93.0837 29.7811L91.4917 28.3411L93.3471 29.4151C93.9627 29.7606 94.594 30.1302 95.2 30.3409L94.8165 31.1584Z" fill="#553B2C"/>
<path d="M95.6412 30.2735L92.3213 27.555L96.0825 29.4849L95.6412 30.2735Z" fill="#553B2C"/>
<path d="M96.3804 29.3777C95.1588 28.6144 94.1199 27.7175 93.0737 26.8097C94.2798 27.4659 95.5171 28.1208 96.764 28.5615L96.3804 29.3777Z" fill="#553B2C"/>
<path d="M96.252 28.3459L93.8579 25.9561L96.7967 27.626L96.252 28.3459Z" fill="#553B2C"/>
<path d="M96.857 27.5465L94.4497 25.0603L97.4185 26.8386L96.857 27.5465Z" fill="#553B2C"/>
<path d="M93.8051 31.6219C92.5618 30.8525 91.5193 29.8858 90.5693 28.86C91.7129 29.6606 92.9273 30.365 94.1935 30.8068L93.8051 31.6219Z" fill="#553B2C"/>
<path d="M93.5623 32.4731C93.2821 32.3033 92.83 32.077 92.4885 31.8482C92.1242 31.6146 91.7767 31.3654 91.4424 31.1006C90.775 30.5708 90.1582 29.9929 89.5786 29.3873C90.2568 29.8797 90.9614 30.3324 91.6889 30.7225C92.0532 30.9176 92.4248 31.0921 92.8012 31.2474C93.1944 31.416 93.5202 31.5003 93.9964 31.6821L93.5623 32.4731Z" fill="#553B2C"/>
<path d="M92.4184 32.8945C92.137 32.7175 91.7126 32.4947 91.3747 32.2696C91.0224 32.0384 90.6821 31.794 90.3574 31.534C89.7069 31.0163 89.1069 30.4492 88.5405 29.8581C89.2055 30.3361 89.8921 30.7779 90.6051 31.1572C90.961 31.3462 91.323 31.5183 91.6909 31.6712C92.0721 31.8326 92.4004 31.9265 92.8537 32.1035L92.4184 32.8945Z" fill="#553B2C"/>
<path d="M91.4652 33.5446C91.1814 33.3616 90.7822 33.1437 90.4515 32.921C90.1088 32.6934 89.7793 32.4514 89.4631 32.1974C88.8294 31.6893 88.2438 31.1367 87.6919 30.5576C88.3424 31.0223 89.0146 31.4521 89.7108 31.8206C90.0583 32.0048 90.4118 32.1745 90.7713 32.3238C91.1393 32.4815 91.4712 32.5815 91.9004 32.7536L91.4652 33.5446Z" fill="#553B2C"/>
<path d="M90.3237 33.9684L89.3401 33.3447C89.0082 33.122 88.6884 32.8836 88.3806 32.6356C87.7625 32.1372 87.1937 31.5942 86.6562 31.0295C87.2923 31.4822 87.9489 31.9 88.6283 32.2576C88.9673 32.437 89.3124 32.6019 89.6636 32.75L90.759 33.1786L90.3237 33.9684Z" fill="#553B2C"/>
<path d="M89.0711 34.2574L88.1176 33.6361C87.7965 33.4146 87.4863 33.181 87.1869 32.9378C86.5857 32.4502 86.0326 31.9193 85.5083 31.3679C86.1312 31.8049 86.7709 32.213 87.4358 32.561C87.7665 32.7356 88.1032 32.8957 88.4447 33.0414L89.5064 33.4664L89.0711 34.2574Z" fill="#553B2C"/>
<path d="M87.7749 34.4933C87.1797 34.1033 86.5171 33.665 85.9484 33.187C85.3664 32.7091 84.8277 32.1902 84.3179 31.652C84.9263 32.077 85.5516 32.4707 86.1985 32.8114C86.8502 33.1618 87.4935 33.4182 88.2102 33.7023L87.7749 34.4933Z" fill="#553B2C"/>
<path d="M86.5965 34.8714C86.0121 34.4813 85.3821 34.0491 84.8277 33.5807C84.2638 33.1112 83.7407 32.6055 83.2441 32.0806C83.8381 32.4911 84.449 32.8728 85.0791 33.2051C85.7127 33.5446 86.344 33.8047 87.0318 34.0816L86.5965 34.8714Z" fill="#553B2C"/>
<path d="M85.3696 35.1904C84.7973 34.7991 84.1961 34.3753 83.6574 33.9142C83.1127 33.4543 82.604 32.9619 82.123 32.449C82.7014 32.8475 83.2978 33.2159 83.9099 33.5398C84.5255 33.8709 85.146 34.1333 85.8049 34.4006L85.3696 35.1904Z" fill="#553B2C"/>
<path d="M84.266 35.66C83.1213 34.8846 82.0499 33.9684 81.124 32.9679C82.2555 33.7457 83.4435 34.373 84.7013 34.869L84.266 35.66Z" fill="#553B2C"/>
<path d="M82.888 35.796C81.7757 35.0243 80.7524 34.1261 79.8506 33.1521C80.9532 33.901 82.11 34.521 83.3232 35.005L82.888 35.796Z" fill="#553B2C"/>
<path d="M81.3344 35.7214C80.2522 34.9557 79.2806 34.0719 78.4028 33.1268C79.4766 33.8432 80.6009 34.462 81.7697 34.9304L81.3344 35.7214Z" fill="#553B2C"/>
<path d="M79.7857 35.6516C78.7336 34.8955 77.8149 34.0238 76.96 33.1064C78.0061 33.7926 79.0955 34.4103 80.221 34.8617L79.7857 35.6516Z" fill="#553B2C"/>
<path d="M22.3654 27.5785C17.4089 19.1629 19.1429 8.94371 26.2409 4.75274C33.3365 0.562969 43.1075 3.98822 48.0652 12.4039C53.0217 20.8183 51.2865 31.0375 44.1909 35.2285C37.0941 39.4183 27.3219 35.9942 22.3654 27.5785Z" fill="white"/>
<path d="M22.3654 27.579L22.8837 27.2732C21.0283 24.1237 20.1409 20.7189 20.1409 17.5007C20.1445 12.3562 22.3943 7.72336 26.5451 5.27211C28.5039 4.11631 30.6731 3.56732 32.8964 3.56732C38.3471 3.5625 44.126 6.89625 47.547 12.7102C49.4024 15.8597 50.2898 19.2633 50.2898 22.4815C50.2862 27.626 48.0364 32.2588 43.8856 34.71C41.9268 35.8658 39.7576 36.4148 37.5343 36.4148C32.0836 36.4197 26.3046 33.0859 22.8837 27.2732L22.3654 27.579L21.8484 27.8848C25.4689 34.0286 31.593 37.614 37.5343 37.6188C39.9548 37.62 42.344 37.018 44.4964 35.7479C49.0717 33.045 51.4946 27.9667 51.4922 22.4815C51.491 19.043 50.5459 15.4299 48.5835 12.0985C44.9605 5.95356 38.8365 2.36818 32.8964 2.36336C30.4759 2.36336 28.0867 2.96413 25.9355 4.2355C21.359 6.93718 18.9361 12.0155 18.9385 17.5007C18.9397 20.9404 19.8848 24.5523 21.8484 27.8848L22.3654 27.579Z" fill="#553B2C"/>
<path d="M42.6161 36.0139C39.5102 35.2398 36.688 33.1353 34.8254 30.2927C32.916 27.4538 32.1849 23.8564 32.4218 20.4937C32.6238 17.6271 32.3929 14.8038 31.5572 12.0516C30.7203 9.30416 29.3219 6.64462 27.3174 4.19095C30.2778 5.45511 32.6538 8.00389 34.1797 10.9704C35.7008 13.9623 36.272 17.4537 36.0183 20.7622C35.8391 23.5626 36.1589 26.3438 37.3013 28.9262C38.3931 31.5364 40.2449 33.9178 42.6161 36.0139Z" fill="#553B2C"/>
<path d="M43.8438 35.2049C43.8438 35.2049 53.3912 25.8742 44.9284 12.9762C36.4644 0.0782547 26.2412 4.75323 26.2412 4.75323C26.2412 4.75323 37.7293 -1.91549 47.403 11.3485C47.403 11.3485 57.132 27.2877 43.8438 35.2049Z" fill="#553B2C"/>
<path d="M23.9083 9.09467C23.1977 10.3612 22.6782 11.7109 22.3103 13.093C21.9604 14.4776 21.7078 15.8898 21.6838 17.3165C21.6573 18.7384 21.7199 20.1723 22.0024 21.5773C22.2309 22.9968 22.6782 24.3657 23.1207 25.7538C22.7997 25.1049 22.4738 24.4487 22.1996 23.7709C21.9772 23.0762 21.6922 22.396 21.5503 21.6736C21.1523 20.2542 21.0681 18.7661 21.0826 17.2948C21.1246 15.82 21.4024 14.3524 21.8702 12.9594C22.3391 11.5688 22.9872 10.2264 23.9083 9.09467Z" fill="#553B2C"/>
<path d="M37.8482 16.1125C38.2029 16.924 38.3977 17.8077 38.4854 18.695C38.5684 19.5847 38.584 20.4853 38.4842 21.375C38.2846 23.0906 38.3856 24.8496 38.8269 26.487L38.8341 26.5135C39.1143 27.5874 39.5243 28.6782 40.0053 29.7148C40.4959 30.7514 41.0346 31.7712 41.637 32.762C40.9108 31.8603 40.2518 30.8947 39.6927 29.8725C39.1468 28.8408 38.6357 27.7957 38.3111 26.6363L38.3183 26.6616C38.0213 25.7827 37.8902 24.899 37.8169 23.9984C37.7676 23.1015 37.8 22.1853 37.9467 21.3088C38.0646 20.4516 38.15 19.5871 38.1343 18.7155C38.1115 17.8474 38.0562 16.9721 37.8482 16.1125Z" fill="#553B2C"/>
<path d="M45.4644 12.9786L42.3945 13.9635L45.1193 12.1455L45.4644 12.9786Z" fill="#553B2C"/>
<path d="M45.5893 12.048C44.3015 12.2683 43.0005 12.6403 41.7295 13.0749C42.8778 12.367 44.0598 11.7121 45.344 11.1787L45.5893 12.048Z" fill="#553B2C"/>
<path d="M44.6383 11.4593C43.4707 11.5375 42.2851 11.8 41.1235 12.1527C42.1649 11.5255 43.2639 10.9668 44.4639 10.5732L44.6383 11.4593Z" fill="#553B2C"/>
<path d="M43.9459 10.6827C42.7242 10.7501 41.4833 11.0222 40.27 11.3978C41.3618 10.7489 42.521 10.1758 43.786 9.79418L43.9459 10.6827Z" fill="#553B2C"/>
<path d="M43.0141 9.83509C41.9006 9.91335 40.7727 10.1517 39.6641 10.4792C40.6513 9.87722 41.6974 9.34147 42.8313 8.95139L43.0141 9.83509Z" fill="#553B2C"/>
<path d="M43.3661 8.87676L42.1926 8.96344C41.815 9.00197 41.4374 9.05855 41.0599 9.12959C40.3047 9.27165 39.5544 9.47874 38.8125 9.72194C39.4931 9.34149 40.1965 8.98993 40.9324 8.69617C41.3004 8.54928 41.6755 8.41564 42.0591 8.30006L43.1822 7.99306L43.3661 8.87676Z" fill="#553B2C"/>
<path d="M42.2524 8.23265L41.1137 8.32534C40.7434 8.36387 40.3754 8.41927 40.0075 8.48909C39.2704 8.62635 38.5393 8.82741 37.8154 9.06097C38.4792 8.69016 39.1622 8.34461 39.88 8.05566C40.2372 7.90998 40.6027 7.77876 40.9742 7.66198L42.0685 7.34894L42.2524 8.23265Z" fill="#553B2C"/>
<path d="M41.0828 7.62585C40.3145 7.68605 39.6255 7.74264 38.898 7.88471C38.1801 8.01955 37.4671 8.21218 36.7612 8.43852C37.4069 8.07493 38.0731 7.73781 38.7693 7.45247C39.4547 7.16232 40.2159 6.9396 40.9 6.74215L41.0828 7.62585Z" fill="#553B2C"/>
<path d="M40.0677 6.9167C39.3294 6.9793 38.65 7.04071 37.9442 7.17917C37.2444 7.3116 36.5494 7.4958 35.8604 7.71371C36.488 7.35734 37.1373 7.02986 37.8131 6.74693C38.4817 6.46039 39.2116 6.23526 39.8849 6.033L40.0677 6.9167Z" fill="#553B2C"/>
<path d="M38.9894 6.25091C38.2811 6.31231 37.6114 6.37974 36.926 6.51458C36.2454 6.64461 35.5684 6.82158 34.8975 7.03107C35.5071 6.68312 36.1384 6.36168 36.7949 6.08236C37.4442 5.79943 38.1429 5.57188 38.8066 5.366L38.9894 6.25091Z" fill="#553B2C"/>
<path d="M38.0719 5.47679C36.724 5.58154 35.4049 5.83075 34.0942 6.24251C35.2726 5.55746 36.5665 4.99761 37.8879 4.59428L38.0719 5.47679Z" fill="#553B2C"/>
<path d="M36.7946 4.93985C35.4936 5.04821 34.2057 5.29864 32.9312 5.69113C34.0795 5.02534 35.3204 4.4679 36.6106 4.05735L36.7946 4.93985Z" fill="#553B2C"/>
<path d="M35.2881 4.55577C34.0339 4.65931 32.7774 4.91936 31.54 5.28897C32.6571 4.64365 33.8451 4.08502 35.1041 3.67207L35.2881 4.55577Z" fill="#553B2C"/>
<path d="M33.7874 4.16569C32.5801 4.26561 31.3572 4.5353 30.1548 4.88324C31.2418 4.25839 32.3757 3.69494 33.6034 3.28199L33.7874 4.16569Z" fill="#553B2C"/>
<path d="M48.6593 16.9469C48.0124 17.4032 47.3631 17.6873 46.7126 17.9991L44.7646 18.8985L46.4805 17.6127C47.0397 17.1829 47.6277 16.7458 48.0593 16.2727L48.6593 16.9469Z" fill="#553B2C"/>
<path d="M48.1713 15.838L44.3691 17.8246L47.6218 15.1229L48.1713 15.838Z" fill="#553B2C"/>
<path d="M47.6395 14.8063C46.4575 15.631 45.225 16.2341 43.9805 16.8385C45.0567 15.9861 46.1461 15.1072 47.0407 14.1308L47.6395 14.8063Z" fill="#553B2C"/>
<path d="M46.6414 14.5185L43.5054 15.7827L46.1952 13.7335L46.6414 14.5185Z" fill="#553B2C"/>
<path d="M46.1451 13.6468L42.9165 14.8845L45.717 12.8522L46.1451 13.6468Z" fill="#553B2C"/>
<path d="M48.6868 18.0606C47.4916 18.9009 46.1941 19.4824 44.8774 19.9508C46.0618 19.214 47.1861 18.3724 48.0916 17.3827L48.6868 18.0606Z" fill="#553B2C"/>
<path d="M49.3724 18.6192C49.1079 18.8094 48.7207 19.1369 48.3768 19.3608C48.0196 19.6028 47.6529 19.8267 47.2789 20.0302C46.5286 20.4347 45.7566 20.7755 44.9727 21.0716C45.6917 20.6406 46.3843 20.1699 47.0288 19.6534C47.3499 19.3945 47.6577 19.1224 47.9475 18.8371C48.2577 18.5409 48.4621 18.2748 48.8181 17.9064L49.3724 18.6192Z" fill="#553B2C"/>
<path d="M49.31 19.8376C49.037 20.0266 48.6655 20.33 48.3252 20.5503C47.9753 20.7863 47.6169 21.0018 47.2502 21.1993C46.5179 21.5942 45.7616 21.924 44.9956 22.2118C45.6966 21.788 46.3724 21.3293 47.0013 20.8224C47.3151 20.5696 47.6157 20.3023 47.8995 20.0254C48.1989 19.7389 48.4129 19.4716 48.7556 19.1248L49.31 19.8376Z" fill="#553B2C"/>
<path d="M49.5322 20.9705C49.252 21.1583 48.8949 21.4412 48.5594 21.6567C48.2167 21.8843 47.8644 22.0926 47.5061 22.284C46.7918 22.6669 46.0523 22.9871 45.3032 23.2676C45.9862 22.8523 46.6464 22.4032 47.2572 21.906C47.5638 21.6591 47.8584 21.4003 48.1362 21.1282C48.4272 20.8513 48.6496 20.5864 48.9767 20.259L49.5322 20.9705Z" fill="#553B2C"/>
<path d="M49.4723 22.1877L48.5127 22.8475C48.1772 23.0654 47.8321 23.2652 47.4822 23.4519C46.7836 23.8239 46.0609 24.1345 45.3311 24.4078C45.996 23.9997 46.6381 23.559 47.2345 23.075C47.5327 22.833 47.8201 22.5802 48.0931 22.3153L48.9167 21.4762L49.4723 22.1877Z" fill="#553B2C"/>
<path d="M49.2436 23.4543L48.2973 24.0875C47.9678 24.297 47.6311 24.4909 47.2896 24.6703C46.6067 25.0314 45.9008 25.33 45.189 25.5973C45.8359 25.1952 46.4612 24.7666 47.0419 24.2934C47.3329 24.0574 47.6131 23.8094 47.8812 23.5542L48.6881 22.7427L49.2436 23.4543Z" fill="#553B2C"/>
<path d="M48.95 24.7401C48.3572 25.135 47.6959 25.572 47.0321 25.9091C46.3647 26.2559 45.6757 26.5472 44.9819 26.8061C45.6108 26.4124 46.218 25.9922 46.7856 25.5299C47.364 25.0664 47.8522 24.5764 48.3945 24.0286L48.95 24.7401Z" fill="#553B2C"/>
<path d="M48.8336 25.973C48.2456 26.3582 47.6023 26.7688 46.953 27.095C46.3001 27.4273 45.6291 27.7127 44.9521 27.9619C45.5642 27.5766 46.1534 27.1649 46.7077 26.7158C47.2681 26.2655 47.755 25.7863 48.2793 25.2626L48.8336 25.973Z" fill="#553B2C"/>
<path d="M48.6462 27.2287C48.0606 27.6019 47.4341 27.9884 46.7993 28.3026C46.162 28.6216 45.5102 28.8973 44.8501 29.1393C45.4441 28.7625 46.0165 28.3592 46.5564 27.9234C47.1011 27.4863 47.5844 27.0192 48.0907 26.5183L48.6462 27.2287Z" fill="#553B2C"/>
<path d="M48.6414 28.429C47.4787 29.1779 46.2161 29.8039 44.9331 30.2626C46.0935 29.5258 47.136 28.6806 48.0871 27.7187L48.6414 28.429Z" fill="#553B2C"/>
<path d="M48.2238 29.7521C47.0779 30.4721 45.8502 31.0608 44.6021 31.5075C45.7227 30.7863 46.7472 29.9652 47.6695 29.0394L48.2238 29.7521Z" fill="#553B2C"/>
<path d="M47.5447 31.1524C46.4156 31.847 45.2216 32.3924 44.0083 32.8307C45.0893 32.1227 46.0994 31.3317 46.9892 30.4396L47.5447 31.1524Z" fill="#553B2C"/>
<path d="M46.8712 32.5502C45.7625 33.222 44.5998 33.724 43.4214 34.1502C44.4639 33.4568 45.4595 32.6959 46.3169 31.8374L46.8712 32.5502Z" fill="#553B2C"/>
<path d="M54.6315 4.48663C64.631 -1.90638 77.1063 -0.234081 82.4969 8.2189C87.8862 16.6731 84.149 28.7078 74.1495 35.0984C64.15 41.4902 51.6747 39.8191 46.2841 31.3661C40.8948 22.912 44.632 10.8772 54.6315 4.48663Z" fill="white"/>
<path d="M54.6316 4.48713L54.955 4.99399C58.9568 2.43559 63.3589 1.20394 67.5109 1.20394C73.4979 1.20755 78.9353 3.75271 81.9896 8.54325C83.5972 11.0667 84.3608 13.9165 84.362 16.8506C84.3656 23.3664 80.5647 30.2879 73.8262 34.592C69.8244 37.1505 65.4223 38.3809 61.2703 38.3809C55.2821 38.3785 49.8459 35.8333 46.7917 31.0428C45.184 28.5193 44.4192 25.6695 44.4192 22.7355C44.4156 16.2197 48.2166 9.29814 54.955 4.99399L54.6316 4.48713L54.3081 3.97905C47.2546 8.49028 43.2204 15.7513 43.2168 22.7355C43.2156 25.8778 44.0393 28.9648 45.778 31.6905C49.0859 36.8796 54.9514 39.5885 61.2703 39.5849C65.6592 39.5849 70.2814 38.2858 74.4731 35.607C81.5266 31.0958 85.5608 23.8347 85.5644 16.8506C85.5644 13.7082 84.7407 10.6213 83.0032 7.89552C79.6941 2.70647 73.8286 -0.00242233 67.5109 -1.52588e-05C63.122 -1.52588e-05 58.4998 1.30025 54.3081 3.97905L54.6316 4.48713Z" fill="#553B2C"/>
<path d="M45.2656 29.4837C45.9967 25.6359 48.3992 22.0444 51.7877 19.6173C55.1641 17.1275 59.5446 16.0572 63.669 16.2041C67.1308 16.3245 70.5073 15.9428 73.7996 14.8484C77.0811 13.7456 80.2651 12.0023 83.2255 9.50645C82.6039 11.3798 81.4435 13.0328 80.1172 14.5318C78.7621 16.0078 77.1592 17.3093 75.3616 18.2977C71.7843 20.3168 67.5337 21.1836 63.4802 21.0139C60.1074 20.92 56.7935 21.4015 53.7212 22.8571C50.6213 24.2597 47.7811 26.5448 45.2656 29.4837Z" fill="#553B2C"/>
<path d="M46.2974 30.9424C46.2974 30.9424 58.0308 42.156 73.3199 31.3071C88.6089 20.4571 82.4969 8.21889 82.4969 8.21889C82.4969 8.21889 91.0823 21.9091 75.4025 34.2472C75.4025 34.2472 56.4772 46.7684 46.2974 30.9424Z" fill="#553B2C"/>
<path d="M77.1292 5.56949C75.5757 4.73635 73.9151 4.14641 72.2209 3.74911C70.5254 3.36505 68.7951 3.10257 67.0564 3.15073C65.3236 3.16397 63.5801 3.31567 61.8859 3.73826C60.1748 4.08861 58.5323 4.70384 56.8789 5.32508C57.6593 4.92055 58.4433 4.50157 59.2561 4.14881C60.0906 3.85625 60.9059 3.48664 61.7752 3.28919C63.4803 2.76426 65.2768 2.60895 67.0564 2.54875C68.842 2.55116 70.6276 2.81242 72.3387 3.30363C74.045 3.80328 75.7019 4.52084 77.1292 5.56949Z" fill="#553B2C"/>
<path d="M69.2113 22.8294C68.2361 23.2797 67.1719 23.5397 66.1005 23.6782C65.028 23.8082 63.9373 23.86 62.8575 23.7637C61.7982 23.6674 60.7533 23.6782 59.7071 23.7926C58.6694 23.8913 57.6125 24.0803 56.6397 24.4066L56.6229 24.4114L56.6157 24.4138C55.317 24.8159 54.0148 25.3649 52.7787 26.0042C51.5426 26.6532 50.3353 27.3647 49.1689 28.1533C50.2415 27.2431 51.3911 26.4136 52.6103 25.6984C53.8404 24.9977 55.0898 24.3355 56.4762 23.9057L56.4521 23.913C58.53 23.1713 60.7485 22.9775 62.9032 23.2375C63.953 23.3314 65.0099 23.3916 66.0681 23.3266C67.1226 23.2544 68.182 23.1352 69.2113 22.8294Z" fill="#553B2C"/>
<path d="M73.4282 31.9205L72.0142 28.2689L74.2483 31.5449L73.4282 31.9205Z" fill="#553B2C"/>
<path d="M74.568 32.0421C74.212 30.4878 73.6745 28.9335 73.0625 27.4213C73.9439 28.8023 74.7592 30.2265 75.4277 31.7664L74.568 32.0421Z" fill="#553B2C"/>
<path d="M75.2438 30.8682C75.0646 29.4488 74.663 28.0281 74.1567 26.6448C74.9335 27.8981 75.6273 29.2224 76.1215 30.6624L75.2438 30.8682Z" fill="#553B2C"/>
<path d="M76.1568 29.993C75.9885 28.5073 75.5724 27.0192 75.0361 25.5732C75.8418 26.888 76.5536 28.2833 77.0382 29.8027L76.1568 29.993Z" fill="#553B2C"/>
<path d="M77.1449 28.8215C76.9693 27.4695 76.599 26.1174 76.124 24.7979C76.8683 25.9862 77.5321 27.2456 78.0203 28.6072L77.1449 28.8215Z" fill="#553B2C"/>
<path d="M78.3223 29.208C78.2502 28.6891 78.2201 28.2581 78.1432 27.7909C78.0734 27.3322 77.9808 26.8747 77.869 26.4208C77.6477 25.5106 77.3495 24.6125 77.0068 23.7288C77.4842 24.5487 77.9255 25.3939 78.2971 26.2788C78.4834 26.7206 78.653 27.1721 78.8009 27.6332C78.9524 28.0847 79.0726 28.588 79.1977 28.9925L78.3223 29.208Z" fill="#553B2C"/>
<path d="M79.057 27.8259L78.8719 26.4497C78.8009 26.0031 78.7095 25.5576 78.6013 25.1133C78.3873 24.226 78.0963 23.3507 77.7656 22.4875C78.231 23.2857 78.6651 24.1092 79.0294 24.9701C79.2122 25.4011 79.3793 25.8405 79.5284 26.2884L79.9324 27.6127L79.057 27.8259Z" fill="#553B2C"/>
<path d="M79.7434 26.3775C79.622 25.4553 79.5066 24.6113 79.2865 23.7384C79.0761 22.8728 78.7959 22.0192 78.4761 21.1776C78.9306 21.953 79.3538 22.756 79.7134 23.594C80.0789 24.4199 80.3651 25.3301 80.6188 26.1632L79.7434 26.3775Z" fill="#553B2C"/>
<path d="M80.56 25.1133C80.4385 24.2236 80.3159 23.3953 80.1019 22.5477C79.895 21.7037 79.6257 20.8718 79.3179 20.0507C79.7616 20.8068 80.1728 21.5882 80.5287 22.402C80.8883 23.2063 81.1756 24.0791 81.4354 24.8978L80.56 25.1133Z" fill="#553B2C"/>
<path d="M81.3221 23.7709C81.2006 22.9173 81.072 22.1034 80.8652 21.2799C80.6607 20.46 80.4022 19.6497 80.104 18.8491C80.5381 19.5847 80.9385 20.3444 81.2908 21.133C81.6443 21.9156 81.9353 22.7535 82.1987 23.5554L81.3221 23.7709Z" fill="#553B2C"/>
<path d="M82.2219 22.6223C82.0042 20.991 81.6122 19.4005 81.0278 17.839C81.8792 19.2585 82.5814 20.8116 83.0972 22.4068L82.2219 22.6223Z" fill="#553B2C"/>
<path d="M82.8169 21.0451C82.5993 19.4692 82.2049 17.9197 81.647 16.4015C82.4743 17.7836 83.1717 19.2765 83.6923 20.8296L82.8169 21.0451Z" fill="#553B2C"/>
<path d="M83.2199 19.1947C83.0059 17.6753 82.6055 16.1667 82.0752 14.6907C82.876 16.0355 83.5734 17.4658 84.0953 18.9804L83.2199 19.1947Z" fill="#553B2C"/>
<path d="M83.6275 17.3539C83.4219 15.8874 83.0107 14.4222 82.5068 12.9883C83.2824 14.297 83.9846 15.6635 84.5041 17.1383L83.6275 17.3539Z" fill="#553B2C"/>
<path d="M68.7327 35.9501C68.1495 35.2061 67.7623 34.4355 67.3426 33.6686L66.127 31.363L67.7202 33.4218C68.2541 34.0936 68.7916 34.7979 69.3844 35.3265L68.7327 35.9501Z" fill="#553B2C"/>
<path d="M70.0616 35.3132C69.0696 33.8685 68.2134 32.3648 67.4126 30.8357C68.4647 32.201 69.5674 33.5278 70.7566 34.739L70.0616 35.3132Z" fill="#553B2C"/>
<path d="M71.2865 34.6186C70.2211 33.2473 69.4059 31.7893 68.5918 30.3216C69.6475 31.6135 70.7322 32.9174 71.9382 33.9937L71.2865 34.6186Z" fill="#553B2C"/>
<path d="M71.6053 33.4074L69.8545 29.6968L72.3724 32.9342L71.6053 33.4074Z" fill="#553B2C"/>
<path d="M72.6432 32.7681L70.9189 28.9431L73.4212 32.3118L72.6432 32.7681Z" fill="#553B2C"/>
<path d="M67.3835 36.032C66.2952 34.6462 65.5088 33.1112 64.8535 31.5461C65.771 32.9716 66.8135 34.3224 68.04 35.412L67.3835 36.032Z" fill="#553B2C"/>
<path d="M66.7391 36.8952C66.4758 36.5714 66.0706 36.1343 65.776 35.7286C65.4609 35.312 65.1699 34.8822 64.9018 34.4416C64.3655 33.5591 63.9062 32.6428 63.4985 31.7086C64.0384 32.573 64.6252 33.405 65.2673 34.1791C65.5896 34.5644 65.9299 34.934 66.2834 35.2819C66.6477 35.6491 66.9868 35.9068 67.4293 36.3137L66.7391 36.8952Z" fill="#553B2C"/>
<path d="M65.2577 36.8699C64.9992 36.5401 64.6192 36.1175 64.3294 35.7178C64.0252 35.3096 63.7426 34.8894 63.4829 34.4572C62.9598 33.5952 62.5125 32.6982 62.1157 31.7856C62.646 32.6296 63.2184 33.4411 63.8484 34.1948C64.1623 34.5728 64.4942 34.9328 64.8393 35.2735C65.1928 35.6299 65.5307 35.8971 65.9491 36.2908L65.2577 36.8699Z" fill="#553B2C"/>
<path d="M63.8917 37.189C63.6356 36.8519 63.2797 36.4449 62.9971 36.0512C62.7025 35.6503 62.4308 35.2386 62.1771 34.816C61.6684 33.9744 61.2344 33.0967 60.8472 32.207C61.3678 33.0281 61.927 33.8191 62.5438 34.5535C62.8516 34.9219 63.1727 35.2759 63.5106 35.6094C63.8521 35.9549 64.1863 36.2294 64.5832 36.6087L63.8917 37.189Z" fill="#553B2C"/>
<path d="M62.4125 37.1685C62.1588 36.8278 61.8257 36.4329 61.5516 36.0452C61.2678 35.6528 61.0045 35.2482 60.758 34.8377C60.2638 34.0142 59.8429 33.1569 59.4653 32.2877C59.9764 33.0871 60.5223 33.8589 61.1247 34.5752C61.4253 34.934 61.7391 35.2783 62.0674 35.6058C62.3981 35.9441 62.7276 36.2234 63.1027 36.5882L62.4125 37.1685Z" fill="#553B2C"/>
<path d="M60.8652 36.9458L60.0379 35.837C59.7649 35.4517 59.5088 35.0568 59.2707 34.6547C58.7922 33.8505 58.3845 33.0149 58.0166 32.1673C58.5168 32.9439 59.0507 33.6963 59.6387 34.3934C59.9321 34.7426 60.2375 35.0809 60.5562 35.4024L61.5554 36.3655L60.8652 36.9458Z" fill="#553B2C"/>
<path d="M59.2922 36.6436C58.7715 35.9453 58.2064 35.1784 57.7567 34.3946C57.2949 33.6084 56.8981 32.7934 56.541 31.9674C57.0304 32.7235 57.5535 33.4531 58.1258 34.1346C58.6994 34.828 59.3102 35.4204 59.9824 36.0633L59.2922 36.6436Z" fill="#553B2C"/>
<path d="M57.7905 36.5557C57.2843 35.8635 56.7504 35.1146 56.3151 34.3477C55.8702 33.5807 55.483 32.7873 55.1367 31.9807C55.6165 32.7163 56.1275 33.4254 56.6843 34.0888C57.241 34.763 57.8374 35.3518 58.4807 35.9754L57.7905 36.5557Z" fill="#553B2C"/>
<path d="M56.2588 36.3799C55.7682 35.6937 55.2644 34.9641 54.8423 34.2152C54.4143 33.4639 54.0391 32.691 53.7036 31.9072C54.1726 32.6212 54.6728 33.3086 55.2127 33.9576C55.7526 34.6113 56.3334 35.1964 56.9502 35.7984L56.2588 36.3799Z" fill="#553B2C"/>
<path d="M54.8025 36.4269C53.8213 35.0676 52.9844 33.5831 52.3447 32.0553C53.2574 33.4495 54.3059 34.7064 55.4927 35.8466L54.8025 36.4269Z" fill="#553B2C"/>
<path d="M53.1792 35.9754C52.2353 34.6366 51.4441 33.1918 50.8188 31.7062C51.7135 33.0546 52.7295 34.2887 53.8694 35.3963L53.1792 35.9754Z" fill="#553B2C"/>
<path d="M51.451 35.2085C50.5383 33.8926 49.7988 32.4839 49.188 31.0404C50.0634 32.3407 51.0422 33.5567 52.1424 34.6282L51.451 35.2085Z" fill="#553B2C"/>
<path d="M49.7254 34.45C48.844 33.1582 48.1562 31.7844 47.561 30.3842C48.4184 31.6376 49.3575 32.8367 50.4156 33.8697L49.7254 34.45Z" fill="#553B2C"/>
<path d="M10.1639 24.7654C10.0087 28.0919 7.60986 30.6816 4.80456 30.5504C2.00047 30.418 -0.148302 27.6163 0.00801593 24.291C0.163131 20.9645 2.56201 18.3736 5.36731 18.506C8.17141 18.636 10.3202 21.4388 10.1639 24.7654Z" fill="#B88C43"/>
<path d="M5.96227 18.5758C5.96227 18.5758 6.10657 18.7215 6.29776 19.0237C6.39275 19.1754 6.50216 19.3644 6.60437 19.5944C6.65247 19.7112 6.70177 19.8352 6.75588 19.9676C6.80037 20.1024 6.84126 20.2457 6.88455 20.3974C6.91581 20.5515 6.95428 20.7116 6.98314 20.8814C7.00238 21.0499 7.02764 21.2269 7.03245 21.4099C7.04447 21.7759 7.02162 22.1672 6.94106 22.5645C6.8629 22.9618 6.73063 23.3628 6.55267 23.7468C6.45287 23.9334 6.3675 24.1333 6.25206 24.3115L5.89133 24.8424L5.56066 25.3071C5.44402 25.4709 5.37548 25.613 5.27809 25.7646C5.10373 26.068 4.94019 26.3955 4.81634 26.7146C4.74299 26.8723 4.70212 27.0372 4.6468 27.1962C4.58668 27.3539 4.55661 27.5128 4.51452 27.6681C4.43877 27.9799 4.38707 28.2821 4.3546 28.5651C4.32695 28.8492 4.31252 29.1116 4.30891 29.3488C4.31132 29.5848 4.31733 29.7931 4.32936 29.964C4.34619 30.1362 4.35701 30.2735 4.37024 30.3662L4.39309 30.5094C4.39309 30.5094 4.27284 30.3433 4.13336 30.0134C4.06482 29.8485 3.98666 29.6438 3.92293 29.4018C3.8592 29.1586 3.79908 28.8781 3.77022 28.5663C3.74016 28.2568 3.72573 27.9125 3.7582 27.5513C3.78706 27.1913 3.84958 26.8097 3.96261 26.428C4.01912 26.2378 4.07203 26.0404 4.1574 25.8537C4.23797 25.6647 4.3041 25.4709 4.41713 25.2831C4.52054 25.1001 4.62155 24.8858 4.73578 24.7292L5.0845 24.2224L5.39833 23.7757C5.49693 23.624 5.57749 23.4639 5.66888 23.311C5.83241 22.9943 5.96828 22.6729 6.06809 22.3478C6.16789 22.0252 6.23162 21.7001 6.27131 21.3859C6.29415 21.2293 6.29054 21.0752 6.30737 20.9235C6.31338 20.773 6.30737 20.6262 6.30978 20.4841C6.29896 20.342 6.28934 20.206 6.27972 20.076C6.26288 19.9459 6.24845 19.8231 6.23282 19.7063C6.19194 19.4752 6.15466 19.2693 6.11257 19.1031C6.06929 18.9358 6.03562 18.8022 6.00676 18.7143L5.96227 18.5758Z" fill="#FFFDFC"/>
</g>
<defs>
<clipPath id="clip0_83_47">
<rect width="122" height="56" fill="white"/>
</clipPath>
</defs>
</svg>
